<svg id="Layer_1" data-name="Layer 1" xmlns="http://www.w3.org/2000/svg" viewBox="0 0 122.88 72.38"><defs><style>.cls-1{fill-rule:evenodd;}</style></defs><title>banknote</title><path class="cls-1" d="M13.3,0H122.88V56.85l-7.33,1.06-.78-41.48v-.54a7.74,7.74,0,0,0-7.31-7.32h-94L13.3,0Zm95.8,15.53V72.38H0V15.53ZM44.8,38.36A12.92,12.92,0,1,1,50.59,55.7,12.92,12.92,0,0,1,44.8,38.36ZM18.41,23.92l72.12.53a8.41,8.41,0,0,0,8.52,8.27l.34,22.48a8.4,8.4,0,0,0-8.26,8.53L19,63.2a8.41,8.41,0,0,0-8.53-8.27l-.34-22.48a8.43,8.43,0,0,0,8.3-8.53Z"/></svg>